<svg width="83" height="15" viewBox="0 0 83 15" fill="none" xmlns="http://www.w3.org/2000/svg">
<path d="M7.70946 0.886353L9.46216 6.24927H15.134L10.5454 9.56374L12.2981 14.9267L7.70946 11.6122L3.12082 14.9267L4.87352 9.56374L0.284882 6.24927H5.95675L7.70946 0.886353Z" fill="#FFB800"/>
<path d="M24.6236 0.886353L26.3763 6.24927H32.0482L27.4595 9.56374L29.2123 14.9267L24.6236 11.6122L20.035 14.9267L21.7877 9.56374L17.199 6.24927H22.8709L24.6236 0.886353Z" fill="#FFB800"/>
<path d="M41.1823 0.88623L42.8553 6.24915H48.2694L43.8893 9.56362L45.5623 14.9265L41.1823 11.6121L36.8022 14.9265L38.4753 9.56362L34.0952 6.24915H39.5092L41.1823 0.88623Z" fill="#FFB800"/>
<path d="M57.7439 0.88623L59.4966 6.24915H65.1684L60.5798 9.56362L62.3325 14.9265L57.7439 11.6121L53.1552 14.9265L54.9079 9.56362L50.3193 6.24915H55.9911L57.7439 0.88623Z" fill="#FFB800"/>
<path d="M74.6558 0.88623L76.4085 6.24915H82.0804L77.4918 9.56362L79.2445 14.9265L74.6558 11.6121L70.0672 14.9265L71.8199 9.56362L67.2313 6.24915H72.9031L74.6558 0.88623Z" fill="#FFB800"/>
</svg>